<svg xmlns="http://www.w3.org/2000/svg" width="78.49" height="67.109" viewBox="0 0 78.49 67.109"><defs><style>.a{fill:#f4f4f4;}.b{fill:#3f3d56;}.c{fill:#54c0ee;}.d{fill:#f28393;}.e{fill:#f67100;opacity:0.823;}.f,.g{fill:#fff;}.f{opacity:0.21;}.g{opacity:0.76;}.h{fill:none;stroke-miterlimit:10;}.i,.j{stroke:none;}.j{fill:#1b3f74;}</style></defs><g transform="translate(-1248.719 -638.085)"><path class="a" d="M45.407,53.495,0,51.525,2.235,0,47.641,1.969Z" transform="translate(1256.811 640.558) rotate(7)"/><path class="b" d="M45.407,53.495,0,51.525,2.235,0,47.641,1.969ZM.672,50.909l44.118,1.913L46.969,2.585,2.851.672Z" transform="translate(1259.592 638.085) rotate(7)"/><rect class="c" width="9.67" height="9.67" transform="translate(1261.869 657.113) rotate(-81)"/><path class="b" d="M10.305,10.752,0,10.305.447,0,10.752.447ZM.672,9.689l9.017.391.391-9.017L1.063.672Z" transform="translate(1264.804 645.034) rotate(7)"/><rect class="b" width="0.645" height="13.216" transform="translate(1284.091 652.8) rotate(-81)"/><rect class="b" width="0.645" height="13.216" transform="translate(1283.688 655.347) rotate(-81)"/><rect class="b" width="0.645" height="32.878" transform="translate(1262.553 663.096) rotate(-81)"/><rect class="b" width="0.645" height="32.878" transform="translate(1262.049 666.279) rotate(-81)"/><rect class="b" width="32.878" height="0.645" transform="translate(1262.929 675.58)"/><rect class="b" width="32.878" height="0.645" transform="translate(1262.929 678.803)"/><rect class="b" width="32.878" height="0.645" transform="translate(1262.929 682.027)"/><g transform="translate(1248.719 662.485)"><path class="d" d="M1308.993,739.11h-27.279a3.457,3.457,0,0,1-3.457-3.457v-2.267a3.469,3.469,0,0,0-3.469-3.469h-12.6a3.469,3.469,0,0,0-3.469,3.469v36.009a3.231,3.231,0,0,0,3.232,3.231h47.043a3.231,3.231,0,0,0,3.231-3.231V742.341A3.231,3.231,0,0,0,1308.993,739.11Z" transform="translate(-1258.719 -729.917)"/><path class="a" d="M1308.993,739.11h-27.279a3.457,3.457,0,0,1-3.457-3.457v-2.267a3.469,3.469,0,0,0-3.469-3.469h-12.6a3.469,3.469,0,0,0-3.469,3.469v36.009a3.231,3.231,0,0,0,3.232,3.231h47.043a3.231,3.231,0,0,0,3.231-3.231V742.341A3.231,3.231,0,0,0,1308.993,739.11Z" transform="translate(-1258.719 -729.917)"/><path class="e" d="M1306.557,739.11H1280.6a3.376,3.376,0,0,1-3.289-3.457v-2.267a3.388,3.388,0,0,0-3.3-3.469h-11.99a3.388,3.388,0,0,0-3.3,3.469v36.009a3.156,3.156,0,0,0,3.075,3.231h44.764a3.156,3.156,0,0,0,3.075-3.231V742.341A3.156,3.156,0,0,0,1306.557,739.11Z" transform="translate(-1258.719 -729.917)"/></g><g transform="translate(1280.792 659.559)"><g transform="translate(0 0)"><circle class="f" cx="12.888" cy="12.888" r="12.888" transform="translate(0 18.227) rotate(-45)"/></g><g transform="translate(7.318 6.539)"><path class="g" d="M1394.36,748.385a.814.814,0,0,1-.928-.682,11.8,11.8,0,0,1,9.879-13.434.815.815,0,0,1,.246,1.61,10.174,10.174,0,0,0-8.514,11.578A.814.814,0,0,1,1394.36,748.385Z" transform="translate(-1393.296 -734.259)"/></g><g transform="translate(3.185 3.185)"><g class="h" transform="translate(-1372.997 -717.786)"><path class="i" d="M1401.141,740.171a.58.58,0,0,1,.053-.059,15.075,15.075,0,1,0-2.311,3.129l1.458-1.982Z"/><path class="j" d="M 1388.021118164062 747.87060546875 L 1388.021118164062 745.87060546875 C 1388.6796875 745.87060546875 1389.346923828125 745.8197631835938 1390.004638671875 745.7194213867188 C 1392.823364257812 745.2896728515625 1395.361328125 743.9864501953125 1397.352294921875 741.9483032226562 L 1398.730102539062 740.0748291015625 L 1399.529418945312 738.9876098632812 C 1399.530151367188 738.986572265625 1399.530883789062 738.985595703125 1399.531616210938 738.9845581054688 C 1400.875610351562 736.483154296875 1401.35888671875 733.6787719726562 1400.929321289062 730.8624267578125 C 1400.45654296875 727.7620239257812 1398.883056640625 724.9361572265625 1396.49853515625 722.9053955078125 C 1394.137084960938 720.8941650390625 1391.13916015625 719.7864990234375 1388.05712890625 719.7864990234375 C 1387.397827148438 719.7864990234375 1386.730102539062 719.8373413085938 1386.072387695312 719.9376220703125 C 1382.629150390625 720.4628295898438 1379.596557617188 722.2974243164062 1377.533081054688 725.103515625 C 1375.4697265625 727.9096069335938 1374.62255859375 731.351318359375 1375.147705078125 734.794677734375 C 1375.620483398438 737.8949584960938 1377.194091796875 740.720703125 1379.578491210938 742.75146484375 C 1381.93994140625 744.7626342773438 1384.93798828125 745.870361328125 1388.020141601562 745.87060546875 L 1388.021118164062 747.87060546875 M 1388.02001953125 747.87060546875 C 1380.715698242188 747.8699951171875 1374.3056640625 742.5386962890625 1373.170532226562 735.09619140625 C 1371.918212890625 726.8847045898438 1377.5595703125 719.212890625 1385.770874023438 717.9605102539062 C 1386.539672851562 717.84326171875 1387.302612304688 717.7864990234375 1388.05712890625 717.7864990234375 C 1395.361450195312 717.7864990234375 1401.771484375 723.118408203125 1402.906494140625 730.5609130859375 C 1403.428100585938 733.9805297851562 1402.751708984375 737.3049926757812 1401.1943359375 740.1126708984375 C 1401.17626953125 740.1314086914062 1401.157470703125 740.1495361328125 1401.141479492188 740.1713256835938 L 1400.341430664062 741.259521484375 L 1398.883544921875 743.241943359375 C 1396.670654296875 745.5501098632812 1393.71142578125 747.1773681640625 1390.30615234375 747.6965942382812 C 1389.537353515625 747.8138427734375 1388.774536132812 747.8706665039062 1388.02001953125 747.87060546875 Z"/></g><path class="c" d="M1519.668,838.009l-12.084-8.987c-.044-.032-.151.036-.3.173a16.072,16.072,0,0,0-1.589,1.935,13.864,13.864,0,0,0-1.339,2.119c-.056.137-.072.229-.033.257l12.084,8.987a2.736,2.736,0,0,0,3.855-.588A2.809,2.809,0,0,0,1519.668,838.009Z" transform="translate(-1477.564 -806.364)"/></g></g></g></svg>