<svg xmlns="http://www.w3.org/2000/svg" width="63.565" height="39.376" viewBox="0 0 63.565 39.376"><defs><style>.a{fill:#ff4f5b;}.b{fill:#ef5203;}.b,.d{stroke-miterlimit:10;}.c{fill:#f67100;}.d{fill:#fff;stroke:#f4f4f4;stroke-width:2px;}.e{fill:#88bc08;}.f,.g{stroke:none;}.g{fill:#f35901;}.h{fill:none;}</style></defs><g transform="translate(-305.566 -818.725)"><g transform="translate(305.566 818.725)"><g transform="translate(14.141 5.139)"><path class="a" d="M343.831,832.105l-5.788,27.452-.757,3.593,38.639-.176c1.734-.008,3.271-1.429,3.829-3.539l6.852-25.917c.424-1.6-.506-3.268-1.822-3.267l-39.107.038A2.06,2.06,0,0,0,343.831,832.105Z" transform="translate(-337.285 -830.252)"/></g><g transform="translate(14.141 5.139)"><g class="b" transform="translate(-337.285 -830.252)"><path class="f" d="M 338.5189514160156 862.1446533203125 L 339.0209655761719 859.7631225585938 L 344.8092651367188 832.3116455078125 C 344.9338684082031 831.719970703125 345.2981872558594 831.2905883789062 345.6756286621094 831.2904052734375 L 384.7836303710938 831.2520751953125 C 385.0397338867188 831.2520751953125 385.2357177734375 831.4368286132812 385.3550415039062 831.591796875 C 385.682861328125 832.017578125 385.7939453125 832.6737670898438 385.6380310058594 833.2635498046875 L 378.786376953125 859.180419921875 C 378.34619140625 860.8458862304688 377.1941528320312 861.9688110351562 375.9197082519531 861.9746704101562 L 338.5189514160156 862.1446533203125 Z"/><path class="g" d="M 384.597412109375 832.2522583007812 L 345.8687133789062 832.2902221679688 C 345.8412475585938 832.33984375 345.8093566894531 832.4153442382812 345.7877502441406 832.5180053710938 L 339.9994812011719 859.9694213867188 L 339.7528991699219 861.1390380859375 L 375.9151000976562 860.9746704101562 C 376.7184143066406 860.9710083007812 377.5015563964844 860.1281127929688 377.8196105957031 858.9248657226562 L 384.6712341308594 833.0079345703125 C 384.7586669921875 832.67724609375 384.6757507324219 832.3897094726562 384.597412109375 832.2522583007812 M 384.7838134765625 830.2520751953125 C 386.0997009277344 830.2521362304688 387.0281982421875 831.917724609375 386.6047973632812 833.5191650390625 L 379.753173828125 859.43603515625 C 379.1954345703125 861.546142578125 377.6586303710938 862.9666748046875 375.92431640625 862.9746704101562 L 337.2850036621094 863.1502685546875 L 338.04248046875 859.556884765625 L 343.8307800292969 832.1053466796875 C 344.0563659667969 831.0340576171875 344.8116149902344 830.290771484375 345.6752014160156 830.2904052734375 L 384.7826538085938 830.2520751953125 C 384.7830505371094 830.2520751953125 384.7834167480469 830.2520751953125 384.7838134765625 830.2520751953125 Z"/></g></g><path class="c" d="M354.641,851.309,350.55,820.9a2.52,2.52,0,0,0-2.514-2.172l-8.971.027a2.544,2.544,0,0,0-1.772.725l-4.26,4.177-24.95.12a2.511,2.511,0,0,0-2.494,2.833l3.8,28.109a2.52,2.52,0,0,0,2.511,2.17l43.482-.079c4.843.093,5.305-1.227,5.305-1.227C355.135,856.716,354.641,851.313,354.641,851.309Z" transform="translate(-305.566 -818.725)"/></g><g class="d" transform="translate(345.563 835.778)"><circle class="f" cx="11.161" cy="11.161" r="11.161"/><circle class="h" cx="11.161" cy="11.161" r="10.161"/></g><rect class="e" width="2.287" height="10.238" rx="1.143" transform="translate(355.581 841.82)"/><rect class="e" width="10.238" height="2.287" rx="1.143" transform="translate(351.605 845.796)"/></g></svg>