<svg xmlns="http://www.w3.org/2000/svg" width="350.613" height="295.964" viewBox="0 0 350.613 295.964">
  <g id="Group_6178" data-name="Group 6178" transform="translate(-253.977 -138.78)">
    <path id="Path_4914" data-name="Path 4914" d="M561.67,270.425a131.027,131.027,0,0,1-20.68,70.862c-11.879,27.5-7.235,47.255,10.725,60.783-30.2,11.238-51.348,11.238-72.083-9.667A131.667,131.667,0,1,1,561.67,270.425Z" fill="#f5f5f5" fill-rule="evenodd"/>
    <g id="Group_6177" data-name="Group 6177">
      <path id="Path_4915" data-name="Path 4915" d="M394.962,352.605c-3.564-9.47-6.931-14.5-17.683-20.3,6.86-1.671,18.2-1.891,23.076-.723C400.567,337.05,398.626,344.875,394.962,352.605Z" fill="#ff7f00"/>
      <path id="Path_4916" data-name="Path 4916" d="M290.44,434.744c-3.736,0-6.116-.05-6.587-.062l-.757-.018-.081-.743c-.086-.781-7.986-78.371,41.895-104.145,13.283-4.819,27.395-7.894,41.162-3.63a53.485,53.485,0,0,1,31.7,26.2h0c13.628,25.772,3.6,56.66-22.838,70.319C353.652,433.666,307.647,434.744,290.44,434.744Z" fill="#387c11"/>
      <path id="Path_4917" data-name="Path 4917" d="M403.974,375.827a52.15,52.15,0,0,1-52.15,52.151c-28.8,0-97.847-24.262-97.847-24.262s42.541-80.039,97.847-80.039A52.15,52.15,0,0,1,403.974,375.827Z" fill="#88bc08"/>
      <circle id="Ellipse_10091" data-name="Ellipse 10091" cx="38.956" cy="38.956" r="38.956" transform="translate(313.245 335.396)" fill="#fbf9f0"/>
      <circle id="Ellipse_10092" data-name="Ellipse 10092" cx="24.846" cy="24.846" r="24.846" transform="translate(335.323 337.337)" fill="#88bc08"/>
      <circle id="Ellipse_10093" data-name="Ellipse 10093" cx="14.2" cy="14.2" r="14.2" transform="translate(349.113 338.405)" fill="#fff"/>
    </g>
    <path id="Path_4918" data-name="Path 4918" d="M564.857,310.659,385.014,288.653l12.915-69.422a22,22,0,0,1,24.232-19.515l148.762,16.04a36,36,0,0,1,31.933,39.652l-3.9,28.618A31,31,0,0,1,564.857,310.659Z" fill="#fff" stroke="#387c11" stroke-miterlimit="10" stroke-width="3"/>
    <path id="Rectangle_5386" data-name="Rectangle 5386" d="M30,0H193.291a30,30,0,0,1,30,30V68.588a30,30,0,0,1-30,30H0a0,0,0,0,1,0,0V30A30,30,0,0,1,30,0Z" transform="translate(376.371 196.804)" fill="#54c0ee"/>
    <g id="Label">
      <text id="Salut_Eu_sunt_Filbo._Hai_sa_iti_cream_contul." data-name="Salut! Eu sunt Filbo.
Hai sa iti cream contul." transform="translate(395.953 240.516)" fill="#fff" font-size="18" font-family="SegoeUI, Segoe UI" letter-spacing="-0.03em" style="isolation: isolate"><tspan x="0" y="0">Salut! Eu sunt Filbo.</tspan><tspan x="0" y="28">Hai sa iti cream contul.</tspan></text>
    </g>
    <path id="Rectangle_5387" data-name="Rectangle 5387" d="M10.326,0h6.606A10.326,10.326,0,0,1,27.257,10.326v0A10.326,10.326,0,0,1,16.932,20.651H0a0,0,0,0,1,0,0V10.326A10.326,10.326,0,0,1,10.326,0Z" transform="translate(474.388 327.011)" fill="none" stroke="#c6eeff" stroke-miterlimit="10" stroke-width="2"/>
    <path id="Rectangle_5388" data-name="Rectangle 5388" d="M0,0H22.9a10.69,10.69,0,0,1,10.69,10.69v0A10.69,10.69,0,0,1,22.9,21.381H10.69A10.69,10.69,0,0,1,0,10.691V0A0,0,0,0,1,0,0Z" transform="translate(425.871 177.646) rotate(180)" fill="#aae500"/>
    <path id="Rectangle_5389" data-name="Rectangle 5389" d="M8,0H8a8,8,0,0,1,8,8V8a8,8,0,0,1-8,8H0a0,0,0,0,1,0,0V8A8,8,0,0,1,8,0Z" transform="translate(315.995 266.173)" fill="#387c11"/>
  </g>
</svg>
