<svg xmlns="http://www.w3.org/2000/svg" width="35.618" height="32" viewBox="0 0 35.618 32"><defs><style>.a{fill:#d6d9e0;}</style></defs><g transform="translate(0 -26.001)"><g transform="translate(0 26.001)"><g transform="translate(0 0)"><path class="a" d="M33.539,26H2.078A2.081,2.081,0,0,0,0,28.079v19.5a2.081,2.081,0,0,0,2.078,2.078H16.728a11.627,11.627,0,0,0,3.253,5.681A9.093,9.093,0,0,0,24.619,58a9.093,9.093,0,0,0,4.639-2.667,11.627,11.627,0,0,0,3.253-5.681h1.029a2.081,2.081,0,0,0,2.078-2.078v-19.5A2.081,2.081,0,0,0,33.539,26Zm-2.1,20.8a10.269,10.269,0,0,1-3.111,7.491,8.712,8.712,0,0,1-3.713,2.317,8.711,8.711,0,0,1-3.713-2.317A10.269,10.269,0,0,1,17.795,46.8V43.376a31.135,31.135,0,0,0,6.825-2.886,32.213,32.213,0,0,0,6.824,2.886Zm2.783.773a.688.688,0,0,1-.687.687h-.787a12.837,12.837,0,0,0,.083-1.46V42.849a.7.7,0,0,0-.513-.671,30.688,30.688,0,0,1-7.351-3.091.7.7,0,0,0-.7,0,29.847,29.847,0,0,1-7.351,3.091.7.7,0,0,0-.513.671V46.8a12.82,12.82,0,0,0,.083,1.46H2.078a.688.688,0,0,1-.687-.687V35.74H34.226Zm0-13.226H1.391V31.566H34.226Zm0-4.174H1.391v-2.1a.688.688,0,0,1,.687-.687H33.539a.688.688,0,0,1,.687.687Z" transform="translate(0 -26.001)"/></g></g><g transform="translate(2.783 40.61)"><g transform="translate(0 0)"><path class="a" d="M45.566,236a3.133,3.133,0,0,0-1.217.247,3.13,3.13,0,1,0,0,5.768A3.13,3.13,0,1,0,45.566,236Zm-2.434,4.869a1.739,1.739,0,1,1,1.739-1.739A1.741,1.741,0,0,1,43.132,240.872Zm2.607-.009a3.122,3.122,0,0,0,0-3.461,1.739,1.739,0,0,1,0,3.461Z" transform="translate(-40.001 -236.003)"/></g></g><g transform="translate(2.783 37.479)"><path class="a" d="M44.273,191H40.695a.7.7,0,0,0,0,1.391h3.578a.7.7,0,1,0,0-1.391Z" transform="translate(-39.999 -191.001)"/></g><g transform="translate(8.384 37.479)"><path class="a" d="M121.251,191h-.033a.7.7,0,0,0,0,1.391h.033a.7.7,0,1,0,0-1.391Z" transform="translate(-120.522 -191.001)"/></g></g></svg>