<svg xmlns="http://www.w3.org/2000/svg" width="34.303" height="29.336" viewBox="0 0 34.303 29.336"><defs><style>.a{fill:none;stroke:#ea0076;stroke-linecap:round;stroke-width:1.5px;}</style></defs><g transform="translate(0.78 -26.615)"><g transform="translate(0 27.365)"><path class="a" d="M32.455,63.159,18.09,39.335a2.006,2.006,0,0,0-3.436,0L.288,63.159A2.006,2.006,0,0,0,2.006,66.2H30.737a2.006,2.006,0,0,0,1.718-3.042ZM16.382,45.606a1.359,1.359,0,0,1,1.523,1.29c0,2.517-.3,6.135-.3,8.652,0,.656-.719.931-1.227.931-.677,0-1.248-.275-1.248-.931,0-2.517-.3-6.135-.3-8.652C14.838,46.071,15.515,45.606,16.382,45.606ZM16.4,62.2a1.629,1.629,0,1,1,1.608-1.629A1.653,1.653,0,0,1,16.4,62.2Z" transform="translate(0 -38.365)"/></g></g></svg>