<svg xmlns="http://www.w3.org/2000/svg" width="36" height="25.168" viewBox="0 0 36 25.168"><defs><style>.a{fill:#d6d9e0;}</style></defs><g transform="translate(0 -75.55)"><g transform="translate(0 75.55)"><g transform="translate(0 0)"><path class="a" d="M35.95,89.356c-.129-.932-1.09-1.677-2.889-2.222a20.463,20.463,0,0,0-5.3-.746V78.74a.67.67,0,0,0-.151-.43c-.237-.832-1.2-1.505-2.86-2.007a21.342,21.342,0,0,0-5.935-.753,20.717,20.717,0,0,0-5.871.753c-1.3.4-2.853,1.147-2.853,2.43a1.32,1.32,0,0,0,.022.237l.079,3.269a8.577,8.577,0,1,0,3.806,15.082,21.32,21.32,0,0,0,4.595.5c.366,1.986,4.667,2.9,8.681,2.9a20.551,20.551,0,0,0,5.878-.767C34.452,99.55,36,98.8,36,97.514V89.636A.743.743,0,0,0,35.95,89.356ZM13.369,77.672a19.364,19.364,0,0,1,5.448-.7,20.051,20.051,0,0,1,5.52.7c1.556.473,1.892.961,1.892,1.061s-.337.595-1.9,1.061a20.235,20.235,0,0,1-5.513.7,19.682,19.682,0,0,1-5.283-.645c-1.541-.444-1.971-.939-2.007-1.1,0-.014,0-.022-.007-.022C11.527,78.625,11.857,78.138,13.369,77.672Zm12.953,2.853V82.36a.58.58,0,0,0-.093.344c0,.093-.337.588-1.9,1.061a20.291,20.291,0,0,1-5.52.7,20.509,20.509,0,0,1-4.882-.538c-.022-.007-.036-.007-.057-.014a8.464,8.464,0,0,0-2.244-1.269l-.05-2.021a7.942,7.942,0,0,0,1.548.595,21.187,21.187,0,0,0,5.685.7,21.253,21.253,0,0,0,5.928-.753A7.771,7.771,0,0,0,26.323,80.525ZM13.391,95.944a7.145,7.145,0,1,1-4.81-12.43,7.349,7.349,0,0,1,2.122.315,7.211,7.211,0,0,1,4.889,5.384,7.5,7.5,0,0,1,.143,1.441A7.128,7.128,0,0,1,13.391,95.944Zm1.821.158a8.656,8.656,0,0,0,1.376-2.358c.609.05,1.254.086,1.914.093v.129l.036,2.43A22.575,22.575,0,0,1,15.212,96.1Zm1.907-6.294c.423.029.86.043,1.3.05,0,.014.007.036.007.05l.043,2.487q-.763-.011-1.484-.065a8.812,8.812,0,0,0,.165-1.677A6.736,6.736,0,0,0,17.118,89.808Zm1.763-1.376h-.065c-.688,0-1.355-.029-1.971-.072a8.5,8.5,0,0,0-1.283-2.667,25.818,25.818,0,0,0,3.247.208,21.342,21.342,0,0,0,5.935-.753,9.214,9.214,0,0,0,1.577-.645v1.9C23.24,86.489,20.057,87.134,18.882,88.432Zm.961,1.1c.072-.2.595-.667,2.065-1.082a19.681,19.681,0,0,1,5.133-.609h.093a20.09,20.09,0,0,1,5.52.681c1.513.459,1.871.918,1.892,1.039v.007c-.007.108-.366.6-1.957,1.075a19.931,19.931,0,0,1-5.455.674,20.239,20.239,0,0,1-5.2-.616,3.786,3.786,0,0,1-2.057-1.047A.607.607,0,0,0,19.842,89.536Zm14.724,7.979c0,.1-.323.595-1.842,1.068a19.174,19.174,0,0,1-5.455.7,19.507,19.507,0,0,1-5.441-.681C20.308,98.138,20,97.658,20,97.55v-.014l-.036-2.072a17.525,17.525,0,0,0,7.161,1.262,21.146,21.146,0,0,0,5.914-.753,8.353,8.353,0,0,0,1.527-.631v2.172ZM34.5,93.543c0,.1-.33.588-1.878,1.061a19.8,19.8,0,0,1-5.5.688c-3.935,0-6.6-.882-7.19-1.577l-.014-.616-.029-1.642a8.351,8.351,0,0,0,1.634.624,21.6,21.6,0,0,0,5.591.674,21.457,21.457,0,0,0,5.857-.731,8.2,8.2,0,0,0,1.584-.631v1.842h.007C34.566,93.328,34.5,93.435,34.5,93.543Z" transform="translate(0 -75.55)"/></g></g><g transform="translate(3.391 85.575)"><g transform="translate(0 0)"><path class="a" d="M56.067,224.314a.718.718,0,0,0-.925-.416v-.007a3.658,3.658,0,0,1-3.9-.839,2.36,2.36,0,0,1-.509-.652h3.685a.717.717,0,1,0,0-1.434H50.21a2.9,2.9,0,0,1-.022-.789h4.6a.717.717,0,1,0,0-1.434H50.612a4.224,4.224,0,0,1,.624-.846,3.658,3.658,0,0,1,3.9-.824.715.715,0,0,0,.516-1.333,5.093,5.093,0,0,0-5.434,1.154,4.927,4.927,0,0,0-1.183,1.857H48.017a.717.717,0,0,0,0,1.434h.717a4.828,4.828,0,0,0,.014.789h-.731a.717.717,0,0,0,0,1.434h1.1a4.818,4.818,0,0,0,1.1,1.67,5.09,5.09,0,0,0,5.434,1.161A.719.719,0,0,0,56.067,224.314Z" transform="translate(-47.3 -215.4)"/></g></g></g></svg>