<svg xmlns="http://www.w3.org/2000/svg" width="32.178" height="40.615" viewBox="0 0 32.178 40.615">
  <g id="surface1" transform="translate(-0.5)">
    <path id="Path_1992" data-name="Path 1992" d="M22.387.314A.983.983,0,0,0,21.681,0H5.837A5.359,5.359,0,0,0,.5,5.327V35.288a5.359,5.359,0,0,0,5.337,5.327h21.5a5.359,5.359,0,0,0,5.337-5.327V11.5a1.056,1.056,0,0,0-.284-.687Zm.284,3.149,6.7,7.034H25.016a2.336,2.336,0,0,1-2.345-2.335Zm4.67,35.19H5.837a3.4,3.4,0,0,1-3.375-3.365V5.327A3.4,3.4,0,0,1,5.837,1.962H20.709v6.2a4.292,4.292,0,0,0,4.307,4.3h5.7V35.288A3.392,3.392,0,0,1,27.341,38.653Zm0,0" transform="translate(0 0)" fill="#1b3f74"/>
  
  </g>
</svg>
