<svg xmlns="http://www.w3.org/2000/svg" width="80.286" height="30.333" viewBox="0 0 80.286 30.333">
  <g id="Group_5086" data-name="Group 5086" transform="translate(-891.186 -483.618)">
    <path id="Path_4864" data-name="Path 4864" d="M893.862,499.54h-2.676v-4.816h2.676v-2.79c0-2.638.391-5.037,1.844-6.413a7.824,7.824,0,0,1,5.313-1.9c5.006,0,5.849,3.736,5.849,3.736-4.587-.892-7.765-.155-7.2,7.37h4.358v4.816h-4.358v13.991h-.331a5.479,5.479,0,0,1-5.479-5.479Z" transform="translate(0 0)" fill="#1c1c1c"/>
    <path id="Path_4865" data-name="Path 4865" d="M991.829,528.495a2.338,2.338,0,1,1-2.365,2.338A2.363,2.363,0,0,1,991.829,528.495Z" transform="translate(-82.593 -37.715)" fill="#1c1c1c"/>
    <path id="Path_4866" data-name="Path 4866" d="M989.145,579.548h5.81v14.6h-.331a5.479,5.479,0,0,1-5.479-5.479Z" transform="translate(-82.325 -80.619)" fill="#1c1c1c"/>
    <path id="Path_4867" data-name="Path 4867" d="M1058.919,488.056h5.81v29.2h-.331a5.479,5.479,0,0,1-5.479-5.479Z" transform="translate(-140.963 -3.73)" fill="#1c1c1c"/>
    <path id="Path_4868" data-name="Path 4868" d="M1125.5,488.056h5.81v11.238l.076.038a8.575,8.575,0,0,1,4.625-1.3c4.663,0,8.868,3.632,8.868,9.48a9.819,9.819,0,0,1-10.168,10.168,12.024,12.024,0,0,1-4.663-.956l-4.549.764Zm8.792,24.923c3.134,0,4.74-2.447,4.74-5.2s-1.644-4.893-4.511-4.893a6.355,6.355,0,0,0-3.211.917v8.448A6.6,6.6,0,0,0,1134.294,512.979Z" transform="translate(-196.919 -3.73)" fill="#1c1c1c"/>
    <path id="Path_4869" data-name="Path 4869" d="M1273.451,550.567c6,0,10.474,4.281,10.474,9.824s-4.473,9.824-10.474,9.824-10.474-4.281-10.474-9.824S1267.45,550.567,1273.451,550.567Zm0,14.641a4.819,4.819,0,1,0-4.663-4.816A4.693,4.693,0,0,0,1273.451,565.208Z" transform="translate(-312.453 -56.264)" fill="#1c1c1c"/>
  </g>
</svg>
