<svg id="File_error" data-name="File error" xmlns="http://www.w3.org/2000/svg" width="37.231" height="44" viewBox="0 0 37.231 44">
  <path id="Path_1992" data-name="Path 1992" d="M22.387.314A.983.983,0,0,0,21.681,0H5.837A5.359,5.359,0,0,0,.5,5.327V35.288a5.359,5.359,0,0,0,5.337,5.327h21.5a5.359,5.359,0,0,0,5.337-5.327V11.5a1.056,1.056,0,0,0-.284-.687Zm.284,3.149,6.7,7.034H25.016a2.336,2.336,0,0,1-2.345-2.335Zm4.67,35.19H5.837a3.4,3.4,0,0,1-3.375-3.365V5.327A3.4,3.4,0,0,1,5.837,1.962H20.709v6.2a4.292,4.292,0,0,0,4.307,4.3h5.7V35.288A3.392,3.392,0,0,1,27.341,38.653Zm0,0" transform="translate(-0.5)" fill="#1b3f74"/>
  <g id="add" transform="translate(23.692 30.461)">
    <g id="Group_4210" data-name="Group 4210">
      <g id="Ellipse_6196" data-name="Ellipse 6196" transform="translate(0.524 0.524)" fill="#cb0000" stroke="#fff" stroke-width="1">
        <circle cx="6.245" cy="6.245" r="6.245" stroke="none"/>
        <circle cx="6.245" cy="6.245" r="5.745" fill="none"/>
      </g>
      <g id="Path_1997" data-name="Path 1997" fill="#cb0000">
        <path d="M 6.769230842590332 13.03846073150635 C 3.312360763549805 13.03846073150635 0.5000008344650269 10.22610092163086 0.5000008344650269 6.769230842590332 C 0.5000008344650269 3.312360763549805 3.312360763549805 0.5000008344650269 6.769230842590332 0.5000008344650269 C 10.22610092163086 0.5000008344650269 13.03846073150635 3.312360763549805 13.03846073150635 6.769230842590332 C 13.03846073150635 10.22610092163086 10.22610092163086 13.03846073150635 6.769230842590332 13.03846073150635 Z M 6.769230842590332 0.54868084192276 C 3.339210748672485 0.54868084192276 0.54868084192276 3.339210748672485 0.54868084192276 6.769230842590332 C 0.54868084192276 10.19926071166992 3.339210748672485 12.98979091644287 6.769230842590332 12.98979091644287 C 10.19926071166992 12.98979091644287 12.98979091644287 10.19926071166992 12.98979091644287 6.769230842590332 C 12.98979091644287 3.339210748672485 10.19926071166992 0.54868084192276 6.769230842590332 0.54868084192276 Z" stroke="none"/>
        <path d="M 6.769230842590332 13.53846073150635 C 3.036980867385864 13.53846073150635 8.425903388342704e-07 10.5020112991333 8.425903388342704e-07 6.769230842590332 C 8.425903388342704e-07 3.036980867385864 3.036980867385864 8.425903388342704e-07 6.769230842590332 8.425903388342704e-07 C 10.5020112991333 8.425903388342704e-07 13.53846073150635 3.036980867385864 13.53846073150635 6.769230842590332 C 13.53846073150635 10.5020112991333 10.5020112991333 13.53846073150635 6.769230842590332 13.53846073150635 Z M 6.769230842590332 1.048680901527405 C 3.614790916442871 1.048680901527405 1.048680901527405 3.614790916442871 1.048680901527405 6.769230842590332 C 1.048680901527405 9.923670768737793 3.614790916442871 12.48979091644287 6.769230842590332 12.48979091644287 C 9.923670768737793 12.48979091644287 12.48979091644287 9.923140525817871 12.48979091644287 6.769230842590332 C 12.48979091644287 3.614790916442871 9.923670768737793 1.048680901527405 6.769230842590332 1.048680901527405 Z" stroke="none" fill="#fff"/>
      </g>
    </g>
    <g id="Group_4211" data-name="Group 4211" transform="translate(3.623 3.576)">
      <path id="Path_1998" data-name="Path 1998" d="M236.694,141.529a.524.524,0,0,1-.524-.524v-5.243a.524.524,0,1,1,1.049,0V141A.524.524,0,0,1,236.694,141.529Z" transform="translate(-262.074 72.663) rotate(-45)" fill="#f2f2f2"/>
      <path id="Path_1999" data-name="Path 1999" d="M142.79,235.434h-5.243a.524.524,0,0,1,0-1.049h5.243a.524.524,0,0,1,0,1.049Z" transform="translate(-262.074 -63.846) rotate(-45)" fill="#f2f2f2"/>
    </g>
  </g>
</svg>
