<svg id="Upload_file" data-name="Upload file" xmlns="http://www.w3.org/2000/svg" width="37.231" height="44" viewBox="0 0 37.231 44">
  <path id="Path_1992" data-name="Path 1992" d="M22.387.314A.983.983,0,0,0,21.681,0H5.837A5.359,5.359,0,0,0,.5,5.327V35.288a5.359,5.359,0,0,0,5.337,5.327h21.5a5.359,5.359,0,0,0,5.337-5.327V11.5a1.056,1.056,0,0,0-.284-.687Zm.284,3.149,6.7,7.034H25.016a2.336,2.336,0,0,1-2.345-2.335Zm4.67,35.19H5.837a3.4,3.4,0,0,1-3.375-3.365V5.327A3.4,3.4,0,0,1,5.837,1.962H20.709v6.2a4.292,4.292,0,0,0,4.307,4.3h5.7V35.288A3.392,3.392,0,0,1,27.341,38.653Zm0,0" transform="translate(-0.5)" fill="#54c0ee"/>
  <path id="Path_1994" data-name="Path 1994" d="M120.1,178.116l4.042-4.346v10.713a.981.981,0,1,0,1.962,0V173.77l4.042,4.346a.979.979,0,0,0,1.433-1.334l-5.749-6.171a.974.974,0,0,0-1.432,0l-5.749,6.171a.978.978,0,0,0,.049,1.383A1,1,0,0,0,120.1,178.116Zm0,0" transform="translate(-109.03 -156.788)" fill="#54c0ee"/>
  <g id="add" transform="translate(23.692 30.461)">
    <g id="Group_4210" data-name="Group 4210">
      <g id="Ellipse_6196" data-name="Ellipse 6196" transform="translate(0.524 0.524)" fill="#54c0ee" stroke="#fff" stroke-width="1">
        <circle cx="6.245" cy="6.245" r="6.245" stroke="none"/>
        <circle cx="6.245" cy="6.245" r="5.745" fill="none"/>
      </g>
      <g id="Path_1997" data-name="Path 1997" fill="#54c0ee">
        <path d="M 6.769230842590332 13.03846073150635 C 3.312360763549805 13.03846073150635 0.5000008344650269 10.22610092163086 0.5000008344650269 6.769230842590332 C 0.5000008344650269 3.312360763549805 3.312360763549805 0.5000008344650269 6.769230842590332 0.5000008344650269 C 10.22610092163086 0.5000008344650269 13.03846073150635 3.312360763549805 13.03846073150635 6.769230842590332 C 13.03846073150635 10.22610092163086 10.22610092163086 13.03846073150635 6.769230842590332 13.03846073150635 Z M 6.769230842590332 0.54868084192276 C 3.339210748672485 0.54868084192276 0.54868084192276 3.339210748672485 0.54868084192276 6.769230842590332 C 0.54868084192276 10.19926071166992 3.339210748672485 12.98979091644287 6.769230842590332 12.98979091644287 C 10.19926071166992 12.98979091644287 12.98979091644287 10.19926071166992 12.98979091644287 6.769230842590332 C 12.98979091644287 3.339210748672485 10.19926071166992 0.54868084192276 6.769230842590332 0.54868084192276 Z" stroke="none"/>
        <path d="M 6.769230842590332 13.53846073150635 C 3.036980867385864 13.53846073150635 8.425903388342704e-07 10.5020112991333 8.425903388342704e-07 6.769230842590332 C 8.425903388342704e-07 3.036980867385864 3.036980867385864 8.425903388342704e-07 6.769230842590332 8.425903388342704e-07 C 10.5020112991333 8.425903388342704e-07 13.53846073150635 3.036980867385864 13.53846073150635 6.769230842590332 C 13.53846073150635 10.5020112991333 10.5020112991333 13.53846073150635 6.769230842590332 13.53846073150635 Z M 6.769230842590332 1.048680901527405 C 3.614790916442871 1.048680901527405 1.048680901527405 3.614790916442871 1.048680901527405 6.769230842590332 C 1.048680901527405 9.923670768737793 3.614790916442871 12.48979091644287 6.769230842590332 12.48979091644287 C 9.923670768737793 12.48979091644287 12.48979091644287 9.923140525817871 12.48979091644287 6.769230842590332 C 12.48979091644287 3.614790916442871 9.923670768737793 1.048680901527405 6.769230842590332 1.048680901527405 Z" stroke="none" fill="#fff"/>
      </g>
    </g>
    <g id="Group_4211" data-name="Group 4211" transform="translate(3.623 3.576)">
      <g id="Path_1998" data-name="Path 1998" transform="translate(-233.548 -135.237)" fill="#f2f2f2">
        <path d="M 236.6943511962891 141.0291137695312 C 236.6806945800781 141.0291137695312 236.6699981689453 141.0184173583984 236.6699981689453 141.0047607421875 L 236.6699981689453 135.7613830566406 C 236.6699981689453 135.7481689453125 236.68115234375 135.7369995117188 236.6943511962891 135.7369995117188 C 236.7075500488281 135.7369995117188 236.7187042236328 135.7481689453125 236.7187042236328 135.7613830566406 L 236.7187042236328 141.0047607421875 C 236.7187042236328 141.0184173583984 236.7080078125 141.0291137695312 236.6943511962891 141.0291137695312 Z" stroke="none"/>
        <path d="M 236.6943511962891 141.5291137695312 C 236.4049530029297 141.5291137695312 236.1699981689453 141.2947387695312 236.1699981689453 141.0047607421875 L 236.1699981689453 135.7613830566406 C 236.1699981689453 135.4719848632812 236.4049530029297 135.2369995117188 236.6943511962891 135.2369995117188 C 236.9838104248047 135.2369995117188 237.2187042236328 135.4719848632812 237.2187042236328 135.7613830566406 L 237.2187042236328 141.0047607421875 C 237.2187042236328 141.2947387695312 236.9838104248047 141.5291137695312 236.6943511962891 141.5291137695312 Z" stroke="none" fill="#fff"/>
      </g>
      <g id="Path_1999" data-name="Path 1999" transform="translate(-137.022 -231.763)" fill="#f2f2f2">
        <path d="M 142.7897644042969 234.9337310791016 L 137.5463256835938 234.9337310791016 C 137.5331420898438 234.9337310791016 137.5220031738281 234.9225769042969 137.5220031738281 234.9093780517578 C 137.5220031738281 234.8961791992188 137.5331420898438 234.8850250244141 137.5463256835938 234.8850250244141 L 142.7897644042969 234.8850250244141 C 142.8031768798828 234.8850250244141 142.8140869140625 234.8959503173828 142.8140869140625 234.9093780517578 C 142.8140869140625 234.9228057861328 142.8031768798828 234.9337310791016 142.7897644042969 234.9337310791016 Z" stroke="none"/>
        <path d="M 142.7897644042969 235.4337310791016 L 137.5463256835938 235.4337310791016 C 137.2569274902344 235.4337310791016 137.0220031738281 235.1987762451172 137.0220031738281 234.9093780517578 C 137.0220031738281 234.6199493408203 137.2569274902344 234.3850250244141 137.5463256835938 234.3850250244141 L 142.7897644042969 234.3850250244141 C 143.0796508789062 234.3850250244141 143.3140869140625 234.6199493408203 143.3140869140625 234.9093780517578 C 143.3140869140625 235.1987762451172 143.0796508789062 235.4337310791016 142.7897644042969 235.4337310791016 Z" stroke="none" fill="#fff"/>
      </g>
    </g>
  </g>
</svg>
