<svg id="Document_to_upload" data-name="Document to upload" xmlns="http://www.w3.org/2000/svg" width="56" height="41" viewBox="0 0 56 41">
  <rect id="Rectangle_13" data-name="Rectangle 13" width="48" height="32.188" rx="3" transform="translate(0 3.953)" fill="#d6d9e0"/>
  <path id="Rectangle_14" data-name="Rectangle 14" d="M2,0H32.447a2,2,0,0,1,2,2v.824a0,0,0,0,1,0,0H0a0,0,0,0,1,0,0V2A2,2,0,0,1,2,0Z" transform="translate(6.776)" fill="#d6d9e0"/>
  <g id="Ellipse_6198" data-name="Ellipse 6198" transform="translate(34 19)" fill="#54c0ee" stroke="#fff" stroke-width="2">
    <circle cx="11" cy="11" r="11" stroke="none"/>
    <circle cx="11" cy="11" r="10" fill="none"/>
  </g>
  <g id="Group_6176" data-name="Group 6176" transform="translate(6343.611 -5757)">
    <path id="Path_1998" data-name="Path 1998" d="M237.027,145.523a.857.857,0,0,1-.857-.857v-8.572a.857.857,0,1,1,1.714,0v8.572A.857.857,0,0,1,237.027,145.523Z" transform="translate(-6535.495 5646.732)" fill="#fff"/>
    <path id="Path_1999" data-name="Path 1999" d="M146.451,236.1h-8.572a.857.857,0,0,1,0-1.714h8.572a.857.857,0,0,1,0,1.714Z" transform="translate(-6440.632 5551.87)" fill="#fff"/>
  </g>
</svg>
