<svg id="Document_uploaded" data-name="Document uploaded" xmlns="http://www.w3.org/2000/svg" width="56" height="41" viewBox="0 0 56 41">
  <g id="Folder_Secure_Small" data-name="Folder / Secure / Small">
    <rect id="Base" width="28.278" height="28.278" transform="translate(19.722 5.635)" fill="none"/>
    <rect id="Rectangle_13" data-name="Rectangle 13" width="47.897" height="32.119" rx="3" transform="translate(0 3.944)" fill="#ff9300"/>
    <path id="Rectangle_14" data-name="Rectangle 14" d="M2,0H32.373a2,2,0,0,1,2,2v.817a0,0,0,0,1,0,0H0a0,0,0,0,1,0,0V2A2,2,0,0,1,2,0Z" transform="translate(6.762)" fill="#ff9300"/>
  </g>
  <g id="Ellipse_10077" data-name="Ellipse 10077" transform="translate(34 19)" fill="#aae500" stroke="#fff" stroke-width="2">
    <circle cx="11" cy="11" r="11" stroke="none"/>
    <circle cx="11" cy="11" r="10" fill="none"/>
  </g>
  <path id="Path_2217" data-name="Path 2217" d="M137.694,136.31a1.052,1.052,0,0,0-1.488,0l-4.519,4.519-1.887-1.887a1.052,1.052,0,1,0-1.488,1.488l2.632,2.632a1.052,1.052,0,0,0,1.488,0l5.263-5.263A1.052,1.052,0,0,0,137.694,136.31Z" transform="translate(-87.668 -109.335)" fill="#fff"/>
</svg>
