<svg xmlns="http://www.w3.org/2000/svg" width="56" height="41" viewBox="0 0 56 41">
  <g id="Group_5006" data-name="Group 5006" transform="translate(-25 -525)">
    <g id="Group_4214" data-name="Group 4214" transform="translate(-2180 -8359)">
      <g id="Folder_Shared_Small" data-name="Folder / Shared / Small" transform="translate(2205 8884)">
        <rect id="Rectangle_13" data-name="Rectangle 13" width="48" height="32.188" rx="3" transform="translate(0 3.953)" fill="#d6d9e0"/>
        <path id="Rectangle_14" data-name="Rectangle 14" d="M2,0H32.447a2,2,0,0,1,2,2v.824a0,0,0,0,1,0,0H0a0,0,0,0,1,0,0V2A2,2,0,0,1,2,0Z" transform="translate(6.776)" fill="#d6d9e0"/>
      </g>
    </g>
    <g id="Ellipse_6198" data-name="Ellipse 6198" transform="translate(59 544)" fill="#54c0ee" stroke="#fff" stroke-width="1">
      <circle cx="11" cy="11" r="11" stroke="none"/>
      <circle cx="11" cy="11" r="10.5" fill="none"/>
    </g>
    <path id="Path_2090" data-name="Path 2090" d="M135.874,4.171l-3.5-4a.5.5,0,0,0-.752,0l-3.5,4A.5.5,0,0,0,128.5,5h2v6.5a.5.5,0,0,0,.5.5h2a.5.5,0,0,0,.5-.5V5h2a.5.5,0,0,0,.376-.829Z" transform="translate(201.996 561) rotate(180)" fill="#fff"/>
  </g>
</svg>
