<svg id="Document_download" data-name="Document download" xmlns="http://www.w3.org/2000/svg" width="56" height="41" viewBox="0 0 56 41">
  <g id="Group_6150" data-name="Group 6150" transform="translate(-25 -429)">
    <g id="Folder_Secure_Small" data-name="Folder / Secure / Small" transform="translate(25 429)">
      <rect id="Base" width="28.278" height="28.278" transform="translate(19.722 5.635)" fill="none"/>
      <rect id="Rectangle_13" data-name="Rectangle 13" width="47.897" height="32.119" rx="3" transform="translate(0 3.944)" fill="#ff9300"/>
      <path id="Rectangle_14" data-name="Rectangle 14" d="M2,0H32.373a2,2,0,0,1,2,2v.817a0,0,0,0,1,0,0H0a0,0,0,0,1,0,0V2A2,2,0,0,1,2,0Z" transform="translate(6.762)" fill="#ff9300"/>
    </g>
    <g id="Ellipse_6197" data-name="Ellipse 6197" transform="translate(59 448)" fill="#54c0ee" stroke="#fff" stroke-width="2">
      <circle cx="11" cy="11" r="11" stroke="none"/>
      <circle cx="11" cy="11" r="10" fill="none"/>
    </g>
  </g>
  <path id="Path_2216" data-name="Path 2216" d="M135.874,4.171l-3.5-4a.5.5,0,0,0-.752,0l-3.5,4A.5.5,0,0,0,128.5,5h2v6.5a.5.5,0,0,0,.5.5h2a.5.5,0,0,0,.5-.5V5h2a.5.5,0,0,0,.376-.829Z" transform="translate(176.996 36) rotate(180)" fill="#fff"/>
</svg>
