<svg xmlns="http://www.w3.org/2000/svg" width="12.707" height="16.066" viewBox="0 0 12.707 16.066"><defs><style>.a{fill:#fff;}</style></defs><g transform="translate(-45.561 -40.689)"><path class="a" d="M49.685,54.618a.6.6,0,0,0,.233-1.159,5.134,5.134,0,0,1-.985-8.925,4.542,4.542,0,0,1,.623-.385l.04-.019a5.078,5.078,0,0,1,1-.377l-.845,1.154a.6.6,0,0,0,.973.713l1.68-2.293,0,0a.575.575,0,0,0,.048-.082c0-.008.009-.015.013-.023a.683.683,0,0,0,.025-.073c0-.014.01-.027.013-.041s.005-.038.008-.057a.578.578,0,0,0,.007-.064v-.01c0-.013,0-.026,0-.039a.673.673,0,0,0-.007-.069c0-.016-.008-.031-.012-.047a.671.671,0,0,0-.021-.069c-.005-.013-.012-.025-.018-.038a.586.586,0,0,0-.037-.069c-.006-.01-.014-.019-.021-.028a.548.548,0,0,0-.053-.064c-.008-.008-.016-.014-.024-.021a.589.589,0,0,0-.051-.046l-2.292-1.678a.6.6,0,1,0-.713.973l1.079.792a6.294,6.294,0,0,0-1.257.469l-.037.017a5.714,5.714,0,0,0-.827.5,6.341,6.341,0,0,0,1.227,11.013.6.6,0,0,0,.234.045Z" transform="translate(0 0)"/><path class="a" d="M65.317,46.92a.6.6,0,1,0-.464,1.112,5.134,5.134,0,0,1,.985,8.925,4.541,4.541,0,0,1-.623.385l-.04.019a5.078,5.078,0,0,1-1,.377l.845-1.154a.6.6,0,0,0-.975-.713l-1.68,2.292,0,0a.575.575,0,0,0-.048.082c0,.008-.009.015-.013.023a.657.657,0,0,0-.025.073c0,.014-.01.027-.013.041s-.005.038-.008.057a.577.577,0,0,0-.007.064v.01c0,.013,0,.025,0,.039a.672.672,0,0,0,.007.069c0,.016.008.031.012.047a.673.673,0,0,0,.021.069c.005.013.012.026.018.038a.583.583,0,0,0,.037.069c.006.01.014.019.021.028a.574.574,0,0,0,.053.064c.008.008.016.014.024.022a.585.585,0,0,0,.051.045l2.293,1.68a.6.6,0,1,0,.713-.973l-1.079-.792a6.294,6.294,0,0,0,1.257-.469l.037-.017a5.714,5.714,0,0,0,.825-.5,6.341,6.341,0,0,0-1.227-11.013Z" transform="translate(-10.94 -4.047)"/></g></svg>