<svg xmlns="http://www.w3.org/2000/svg" width="12.693" height="16" viewBox="0 0 12.693 16">
  <g id="Group_6158" data-name="Group 6158" transform="translate(7149.267 -5929.322)">
    <path id="Path_2218" data-name="Path 2218" d="M151.377,136.371a.637.637,0,0,0-.7.138l-1.654,1.654a6.793,6.793,0,0,0-8.779.69l-.677.677a1.331,1.331,0,0,0,1.883,1.883l.676-.677a4.13,4.13,0,0,1,4.978-.653l-1.486,1.484a.64.64,0,0,0,.452,1.092h5.058a.64.64,0,0,0,.64-.64v-5.058A.638.638,0,0,0,151.377,136.371Z" transform="translate(-7288.346 5793)" fill="#54C0EE"/>
    <path id="Path_2219" data-name="Path 2219" d="M148.087,271.829l-.676.677a4.119,4.119,0,0,1-4.978.655l1.486-1.487a.639.639,0,0,0-.453-1.091h-5.058a.639.639,0,0,0-.64.64v5.058a.64.64,0,0,0,1.092.452l1.651-1.651a6.775,6.775,0,0,0,8.781-.692l.677-.676a1.332,1.332,0,1,0-1.884-1.883Z" transform="translate(-7287.035 5668.403)" fill="#54C0EE"/>
  </g>
</svg>
