<svg xmlns="http://www.w3.org/2000/svg" width="18.004" height="18.012" viewBox="0 0 18.004 18.012">
  <g id="Group_3663" data-name="Group 3663" transform="translate(-733.996 -8423.994)">
    <path id="Path_973" data-name="Path 973" d="M20,25a1,1,0,0,1-.71-.29l-8-8a1,1,0,0,1,0-1.42l8-8a1,1,0,1,1,1.42,1.42L13.41,16l7.3,7.29A1,1,0,0,1,20,25Z" transform="translate(727 8445) rotate(-90)" fill="#1B3F74"/>
    <path id="Path_1789" data-name="Path 1789" d="M20,25a1,1,0,0,1-.71-.29l-8-8a1,1,0,0,1,0-1.42l8-8a1,1,0,1,1,1.42,1.42L13.41,16l7.3,7.29A1,1,0,0,1,20,25Z" transform="translate(758.996 8421) rotate(90)" fill="#1B3F74"/>
  </g>
</svg>
