<svg xmlns="http://www.w3.org/2000/svg" xmlns:xlink="http://www.w3.org/1999/xlink" width="318.328" height="199.786" viewBox="0 0 318.328 199.786"><defs><linearGradient id="a" x1="0.5" y1="-5.725" x2="0.5" y2="-4.725" gradientUnits="objectBoundingBox"><stop offset="0" stop-color="gray" stop-opacity="0.251"/><stop offset="0.54" stop-color="gray" stop-opacity="0.122"/><stop offset="1" stop-color="gray" stop-opacity="0.102"/></linearGradient><linearGradient id="b" x1="0.5" y1="-27.27" x2="0.5" y2="-26.27" xlink:href="#a"/><linearGradient id="c" x1="0.5" y1="-47.367" x2="0.5" y2="-46.367" xlink:href="#a"/></defs><g transform="translate(-1405.757 -173.556)"><path d="M1504.329,290.41h-98.572V178.556h98.572Z" transform="translate(0 -1.505)" fill="#f4f4f4"/><g transform="translate(1474.254 215.577)"><g transform="translate(50.462 51.877)"><rect width="148.906" height="93.756" fill="url(#a)"/><rect width="142.287" height="87.138" transform="translate(3.309 3.309)" fill="#fff"/><rect width="45.223" height="23.163" transform="translate(51.841 82.726)" fill="url(#b)"/><rect width="41.896" height="23.163" transform="translate(53.496 82.726)" fill="#fff"/><rect width="11.03" height="11.03" transform="translate(67.284 34.193)" fill="url(#c)"/><rect width="8.824" height="8.824" transform="translate(68.387 35.296)" fill="#f5f5f5"/></g><path d="M1553.276,233.664H1641.9v50.624" transform="translate(-1518.644 -233.664)" fill="none" stroke="#0097cf" stroke-linecap="round" stroke-linejoin="round" stroke-width="2"/><path d="M1505.441,456.9h246.424c.941,0,1.7.382,1.7.852h0c0,.47-.763.851-1.7.851H1505.441c-.941,0-1.7-.381-1.7-.851h0C1503.737,457.281,1504.5,456.9,1505.441,456.9Z" transform="translate(-1503.737 -300.837)" fill="#3f3d56"/></g><path d="M1509.829,285.41h-98.572V173.556h98.572Zm-97.173-1.4h95.775V174.954h-95.775Z" transform="translate(-1.655)" fill="#3f3d56"/><rect width="20.973" height="20.973" transform="translate(1415.894 192.432)" fill="#54c0ee"/><path d="M1446.628,214.927h-22.371V192.556h22.371Zm-20.973-1.4h19.574V193.954h-19.574Z" transform="translate(-5.567 -5.717)" fill="#3f3d56"/><rect width="28.663" height="1.398" transform="translate(1462.034 195.228)" fill="#3f3d56"/><rect width="28.663" height="1.398" transform="translate(1462.034 200.821)" fill="#3f3d56"/><rect width="71.307" height="1.398" transform="translate(1419.389 224.59)" fill="#3f3d56"/><rect width="71.307" height="1.398" transform="translate(1419.389 231.581)" fill="#3f3d56"/><rect width="71.307" height="1.398" transform="translate(1419.389 238.572)" fill="#3f3d56"/><rect width="71.307" height="1.398" transform="translate(1419.389 245.562)" fill="#3f3d56"/><rect width="71.307" height="1.398" transform="translate(1419.389 252.553)" fill="#3f3d56"/><rect width="71.307" height="1.398" transform="translate(1419.389 259.544)" fill="#3f3d56"/></g></svg>