<svg xmlns="http://www.w3.org/2000/svg" width="235" height="210.631" viewBox="0 0 235 210.631"><g transform="translate(-704.958 -207.566)"><path d="M853.8,400.088l70.233-80.344a55.951,55.951,0,0,0-79.994-78.25,55.951,55.951,0,1,0-78.251,79.994l78.139,78.6" transform="translate(-44 -17.127)" fill="#f4f4f4"/><path d="M853.8,400.088l70.233-80.344a55.951,55.951,0,0,0-79.994-78.25,55.951,55.951,0,1,0-78.251,79.994l78.139,78.6" transform="translate(0 -1.126)" fill="#54c0ee"/><path d="M870.994,411.819l-25.8-82.254,31.98-41.471-23.89-26.886,7.231-19.123" transform="translate(-16.57 0.111)" fill="none" stroke="#fff" stroke-linecap="round" stroke-linejoin="round" stroke-width="10"/></g></svg>