<svg xmlns="http://www.w3.org/2000/svg" width="193.25" height="184.428" viewBox="0 0 193.25 184.428"><defs><style>.a{fill:#e4e4e4;}.b{fill:#54bfee;}.c{fill:#fff;}.d{fill:#54c0ee;}</style></defs><g transform="translate(-87 -221.572)"><g transform="translate(-118.402 -324.733)"><g transform="translate(205.402 546.305)"><path class="a" d="M419.652,652.045a20.477,20.477,0,0,0-5.049-13.484,20.56,20.56,0,0,0-13.983-31.483,8.26,8.26,0,0,0-2.065-.263H355.837c.484-2.868,1.08-6.142,1.77-9.432,2.28-10.89,3.406-24.031-5.529-38.923-6.346-10.575-14.89-12.155-19.419-12.155a20.793,20.793,0,0,0-9.136,2.088,8.237,8.237,0,0,0-4.374,8.249c1.292,11.181,2.415,24.972,2.083,28.188-.9,3.07-7.424,14.981-11.345,22.138-4.948,9.031-9.22,16.829-10.872,21.165-.75,1.968-1.663,2.766-3.011,3.2v-.267a8.237,8.237,0,0,0-8.237-8.237H241.639a8.237,8.237,0,0,0-8.237,8.237V715.5a8.238,8.238,0,0,0,8.237,8.237h46.127A8.237,8.237,0,0,0,296,715.5V712.3a112.816,112.816,0,0,0,15.468,5.763,8.194,8.194,0,0,0,2.241.313h66.629a20.593,20.593,0,0,0,20.225-24.342,20.591,20.591,0,0,0,10.05-24.968A20.565,20.565,0,0,0,419.652,652.045Z" transform="translate(-233.402 -546.305)"/><g transform="translate(8.303 8.3)"><path class="a" d="M359.553,558.062c3.589,0,8.377,1.535,12.346,8.15,7.408,12.346,6.585,23.143,4.528,32.971s-3.293,19.342-3.293,19.342H425.4l-.013.061a12.321,12.321,0,0,1-1.2,24.583h1.74a12.321,12.321,0,1,1,0,24.642h-3.159a12.322,12.322,0,0,1-4.763,23.687h-3.252a12.313,12.313,0,0,1-7.554,22.043H340.622s-10.229-2.893-17.284-6.879v-63.5a12.784,12.784,0,0,0,10.288-8.634c3.293-8.641,21.812-39.095,22.636-44.857s-2.032-30.453-2.032-30.453a12.555,12.555,0,0,1,5.324-1.154" transform="translate(-268.605 -558.062)"/><g transform="translate(0 76.464)"><path class="a" d="M291.25,667.28v84.365H245.159V667.28H291.25" transform="translate(-245.159 -667.28)"/><circle class="a" cx="6.549" cy="6.549" r="6.549" transform="translate(14.68 75.206) rotate(-76.771)"/></g></g></g></g><g transform="translate(-111.402 -317.732)"><g transform="translate(205.402 546.305)"><path class="b" d="M419.652,652.045a20.477,20.477,0,0,0-5.049-13.484,20.56,20.56,0,0,0-13.983-31.483,8.26,8.26,0,0,0-2.065-.263H355.837c.484-2.868,1.08-6.142,1.77-9.432,2.28-10.89,3.406-24.031-5.529-38.923-6.346-10.575-14.89-12.155-19.419-12.155a20.793,20.793,0,0,0-9.136,2.088,8.237,8.237,0,0,0-4.374,8.249c1.292,11.181,2.415,24.972,2.083,28.188-.9,3.07-7.424,14.981-11.345,22.138-4.948,9.031-9.22,16.829-10.872,21.165-.75,1.968-1.663,2.766-3.011,3.2v-.267a8.237,8.237,0,0,0-8.237-8.237H241.639a8.237,8.237,0,0,0-8.237,8.237V715.5a8.238,8.238,0,0,0,8.237,8.237h46.127A8.237,8.237,0,0,0,296,715.5V712.3a112.816,112.816,0,0,0,15.468,5.763,8.194,8.194,0,0,0,2.241.313h66.629a20.593,20.593,0,0,0,20.225-24.342,20.591,20.591,0,0,0,10.05-24.968A20.565,20.565,0,0,0,419.652,652.045Z" transform="translate(-233.402 -546.305)"/><g transform="translate(8.303 8.3)"><path class="c" d="M359.553,558.062c3.589,0,8.377,1.535,12.346,8.15,7.408,12.346,6.585,23.143,4.528,32.971s-3.293,19.342-3.293,19.342H425.4l-.013.061a12.321,12.321,0,0,1-1.2,24.583h1.74a12.321,12.321,0,1,1,0,24.642h-3.159a12.322,12.322,0,0,1-4.763,23.687h-3.252a12.313,12.313,0,0,1-7.554,22.043H340.622s-10.229-2.893-17.284-6.879v-63.5a12.784,12.784,0,0,0,10.288-8.634c3.293-8.641,21.812-39.095,22.636-44.857s-2.032-30.453-2.032-30.453a12.555,12.555,0,0,1,5.324-1.154" transform="translate(-268.605 -558.062)"/><g transform="translate(0 76.464)"><path class="d" d="M291.25,667.28v84.365H245.159V667.28H291.25" transform="translate(-245.159 -667.28)"/><circle class="c" cx="6.549" cy="6.549" r="6.549" transform="translate(14.68 75.206) rotate(-76.771)"/></g></g></g></g></g></svg>